# xmcd
#
# Track frame offsets:
#       150
#       12667
#       27130
#       40802
#       52377
#       67105
#       79147
#       90157
#       102057
#       113140
#       127047
#       140157
#       152147
#       164915
#       177287
#       191809
#       204917
#       215802
#       228907
#       241777
#       253677
#       265175
#       279042
#
# Disc length: 3929 seconds
#
# Revision: 6
# Processed by: cddbd v1.5.2PL0 Copyright (c) Steve Scherf et al.
# Submitted via: FreeDbEdit v0.1
#
DISCID=4e0f5717
DTITLE=Nat King Cole - Nat King Cole's Greatest Hits
DYEAR=2000
DGENRE=Blues
TTITLE0=Quizas, Quizas, Quizas
TTITLE1=Unforgettable
TTITLE2=(Get Your Kicks On) Route 66
TTITLE3=Orange Colored Sky
TTITLE4=Mona Lisa
TTITLE5=Walkin' My Baby Back Home
TTITLE6=Straighten Up and Fly Right
TTITLE7=Send for Me
TTITLE8=Looking Back
TTITLE9=You Call It Madness (But I Call It Love)
TTITLE10=(I Love You) For Sentimental Reasons
TTITLE11=Nature Boy
TTITLE12=Ramblin' Rose
TTITLE13=Pretend
TTITLE14=Too Young
TTITLE15=Somewhere Along the Way
TTITLE16=Those Lazy-Hazy-Crazy Days of Summer
TTITLE17=Smile
TTITLE18=Darling, Je Nous Aime Beaucoup
TTITLE19=Answer Me, My Love
TTITLE20=A Blossom Fell
TTITLE21=If I May
TTITLE22=Unforgettable (Duet With Natalie Cole)
EXTD=YEAR: 2000 ID3G:   0
EXTT0=
EXTT1=
EXTT2=
EXTT3=
EXTT4=
EXTT5=
EXTT6=
EXTT7=
EXTT8=
EXTT9=
EXTT10=
EXTT11=
EXTT12=
EXTT13=
EXTT14=
EXTT15=
EXTT16=
EXTT17=
EXTT18=
EXTT19=
EXTT20=
EXTT21=
EXTT22=
PLAYORDER=
